# xmcd
#
# Track frame offsets:
#   150
#   17788
#   32113
#   50135
#   66118
#   79453
#   95655
#   113755
#   127603
#   144348
#   159303
#   175395
#   191448
#   207398
#
# Disc length: 2972 seconds
#
# Revision: 0
# Processed by: cddbd v1.5.1PL2 Copyright (c) Steve Scherf et al.
# Submitted via: GXTranscoder 2.0.1939
#
DISCID=c00b9a0e
DTITLE=malecon - varios
DYEAR=1900
DGENRE=Blues
TTITLE0=n
TTITLE1=n
TTITLE2=n
TTITLE3=n
TTITLE4=n
TTITLE5=n
TTITLE6=n
TTITLE7=n
TTITLE8=n
TTITLE9=n
TTITLE10=n
TTITLE11=n
TTITLE12=n
TTITLE13=n
EXTD=
EXTT0=
EXTT1=
EXTT2=
EXTT3=
EXTT4=
EXTT5=
EXTT6=
EXTT7=
EXTT8=
EXTT9=
EXTT10=
EXTT11=
EXTT12=
EXTT13=
PLAYORDER=
